<svg id="Layer_1" enable-background="new 0 0 512 512" height="512" viewBox="0 0 512 512" width="512" xmlns="http://www.w3.org/2000/svg"><g><g><path d="m157.193 473.579c-43.679-30.978-72.185-81.945-72.185-139.571 0-94.436 76.556-170.992 170.992-170.992s170.992 76.556 170.992 170.992c0 57.625-28.506 108.593-72.185 139.571z" fill="#ffbf59"/><path d="m179.176 334.008-21.982 139.569c27.902 19.789 61.995 31.423 98.806 31.423s70.904-11.634 98.806-31.423l-21.982-139.569z" fill="#82503d"/><path d="m193.386 95.759s-31.783-14.795-40.409-39.601l45.005-49.158s-56.527 17.697-83.392 44.918c0 0 4.06 31.6 27.215 55.733z" fill="#e8f0ff"/><path d="m318.581 95.759s31.784-14.795 40.408-39.601l-45.004-49.158s56.527 17.697 83.392 44.918c0 0-4.06 31.6-27.215 55.733z" fill="#e8f0ff"/><path d="m135.177 99.548s-47.953 21.512-79.622 56.059h93.989z" fill="#82503d"/><path d="m376.823 99.548s47.953 21.512 79.622 56.059h-93.989z" fill="#82503d"/><path d="m376.828 332.139c21.037-76.08 21.038-156.494 0-232.573-.008-.008-.017-.015-.024-.022-85.622-23.993-155.986-23.993-241.608 0-.008.008-.017.016-.024.022-21.037 76.08-21.037 156.493 0 232.573.008.007.016.014.022.021 85.623 23.993 155.988 23.993 241.611 0 .008-.008.015-.015.023-.021z" fill="#b37057"/><path d="m376.823 99.548c-50.145-14.053-95.058-19.865-140.864-17.46 32.422 1.702 65.291 7.513 100.784 17.46 21.043 76.09 21.043 156.516 0 232.606-35.492 9.946-68.361 15.757-100.784 17.459 45.806 2.404 90.719-3.406 140.864-17.459 21.044-76.09 21.044-156.516 0-232.606z" fill="#a8674f"/><path d="m256 236.217c-46.866 0-84.856 33.673-84.856 75.212 0 .111 0 .222.001.333.087 17.55 13.362 32.173 30.747 34.579 36.564 5.062 71.655 5.062 108.219 0 17.384-2.406 30.66-17.029 30.747-34.579.001-.111.001-.222.001-.333-.003-41.538-37.994-75.212-84.859-75.212z" fill="#fcf2b4"/><path d="m256 236.217c-6.907 0-13.612.749-20.041 2.129 37.189 7.985 64.817 37.666 64.817 73.082 0 .111 0 .222-.001.333-.087 17.55-13.362 32.173-30.747 34.579-11.471 1.588-22.796 2.677-34.068 3.268 24.657 1.294 49.056.205 74.148-3.268 17.384-2.406 30.66-17.029 30.747-34.579.001-.111.001-.222.001-.333 0-41.537-37.991-75.211-84.856-75.211z" fill="#f7eb9e"/><path d="m312.499 85.101c0-8.471-5.954-15.805-14.26-17.463-9.492-1.895-23.647-3.796-42.239-3.796-18.686 0-32.708 1.848-42.108 3.717-8.359 1.661-14.39 8.968-14.39 17.49v33.853h.017v.255c0 10.202 8.038 18.764 18.236 19.029 11.529.301 19.413-8.239 19.413-18.817v9.223c0 10.551 8.635 19.512 19.185 19.315 10.23-.192 18.465-8.545 18.465-18.822v-9.717c0 10.397 8.428 18.825 18.825 18.825 10.397 0 18.825-8.428 18.825-18.825v-.467h.032z" fill="#82503d"/></g><g fill="#020202"><path d="m461.572 150.741c-24.661-26.903-58.28-45.862-73.673-53.715 13.635-21.551 16.506-42.75 16.633-43.743.294-2.287-.481-4.583-2.101-6.224-27.804-28.173-83.945-45.973-86.322-46.717-7.149-2.239-12.831 6.697-7.772 12.222l41.688 45.536c-4.727 9.681-13.533 17.543-21.186 23.004-3.242-.582-6.466-1.119-9.679-1.625-2.725-11.233-12.099-17.583-22.94-19.51-9.24-1.647-12.286 13.052-2.624 14.769 5.77 1.025 11.29 3.855 11.29 10.654 0 11.346.035 22.694-.017 34.04 0 6.181-4.888 11.337-10.896 11.493-6.593.165-11.679-4.635-11.679-11.282 0-9.385-15-9.813-15 0v9.205c0 6.206-5.156 11.903-11.505 11.777-6.104-.115-11.069-5.177-11.069-11.285v-9.697c0-9.385-15-9.813-15 0 0 6.224-5.063 11.287-11.287 11.287s-11.287-5.063-11.287-11.287c-.109-11.397-.032-22.8-.032-34.198 0-4.888 3.449-9.125 8.2-10.073 8.162-1.63 21.71-3.584 39.905-3.638 9.682-.029 9.591-15-.045-15-19.401.058-33.982 2.168-42.798 3.928-9.74 1.945-17.247 9.455-19.529 18.817-3.224.508-6.46 1.047-9.714 1.631-7.656-5.462-16.466-13.324-21.193-23.008l41.688-45.536c5.056-5.522-.623-14.466-7.772-12.222-2.376.744-58.518 18.543-86.322 46.717-1.62 1.641-2.395 3.937-2.101 6.224.128.993 3 22.2 16.641 43.755-15.404 7.861-49 26.813-73.648 53.702-4.325 4.718-.871 12.568 5.529 12.568h59.352c-2.587 21.633-3.564 43.412-2.949 65.157-22.581 30.708-34.508 67.085-34.508 105.386 0 70.433 41.616 134.391 106.021 162.941 8.454 3.747 15.13-9.701 6.079-13.713-8.605-3.814-16.751-8.338-24.414-13.45l18.69-118.664c24.493 4.362 48.137 6.561 71.773 6.561s47.279-2.199 71.773-6.561l18.679 118.596c-25.904 17.321-57.017 27.437-90.451 27.437-8.993 0-18.013-.737-26.81-2.191-9.258-1.539-12.128 13.199-2.446 14.799 9.603 1.587 19.446 2.392 29.256 2.392 102 0 178.148-82.388 178.148-178.148 0-38.301-11.927-74.677-34.508-105.386.615-21.745-.362-43.524-2.949-65.157h59.352c6.4 0 9.854-7.85 5.529-12.568zm-95.706-91.719c.905-2.604.31-5.495-1.552-7.528l-23.401-25.561c15.96 7.037 35.058 17.033 48.095 29.015-1.394 6.682-5.4 21.711-15.285 36.36-8.821-2.396-17.411-4.521-25.828-6.382 7.409-6.867 14.372-15.554 17.971-25.904zm-147.432 86.907c5.304 0 10.245-1.578 14.379-4.291 4.365 8.148 12.901 13.799 22.695 13.982 9.609.201 18.912-5.512 23.474-13.883 4.426 2.864 9.729 4.332 15.383 4.181 13.978-.364 25.365-12.104 25.503-26.228.012-.17.018-.342.018-.515v-24.403c16.262 2.679 32.909 6.358 50.576 11.178 19.159 72.049 19.159 147.912 0 219.96-9.577 2.612-18.951 4.904-28.181 6.899 3.721-6.263 5.867-13.497 5.905-21.128l.001-.365c0-45.524-41.354-82.561-92.187-82.561s-92.187 37.037-92.187 82.561l.001.368c.037 7.629 2.184 14.863 5.904 21.125-9.23-1.994-18.604-4.286-28.18-6.898-19.159-72.049-19.159-147.912 0-219.96 17.667-4.82 34.315-8.5 50.577-11.178v24.403c0 .234.011.468.033.699.125 14.388 11.869 26.054 26.286 26.054zm-47.393-119.981-23.388 25.546c-1.861 2.033-2.458 4.924-1.552 7.527 3.6 10.353 10.566 19.042 17.978 25.911-8.416 1.861-17.006 3.987-25.827 6.383-9.828-14.582-13.87-29.677-15.284-36.375 13.02-11.961 32.112-21.951 48.073-28.992zm-96.705 122.361c17.344-15.354 36.816-27.189 49.713-34.245-2.68 11.344-4.912 22.767-6.684 34.245zm77.612 311.191c-36.821-30.543-59.097-76.355-59.097-125.649 0-28.458 7.191-55.752 20.943-80.055 2.317 27.014 7.112 53.866 14.396 80.204.7 2.533 2.675 4.514 5.205 5.223 12.327 3.455 24.324 6.402 36.099 8.879zm51.304-120.727c-.076-.013-.149-.032-.225-.043-13.737-1.901-24.146-13.56-24.213-27.114l-.001-.298c0-37.253 34.625-67.561 77.187-67.561s77.187 30.308 77.187 67.561l-.001.295c-.066 13.558-10.476 25.216-24.213 27.117-.077.011-.15.03-.226.043-35.656 4.923-69.84 4.923-105.495 0zm215.896-4.921c0 50.451-23.022 95.624-59.109 125.574l-17.534-111.324c11.775-2.477 23.772-5.424 36.099-8.879 2.53-.709 4.504-2.69 5.205-5.223 7.284-26.338 12.079-53.189 14.396-80.204 13.752 24.304 20.943 51.598 20.943 80.056zm-24.513-185.543c-1.773-11.481-4.005-22.907-6.687-34.254 12.891 7.047 32.358 18.875 49.719 34.254z"/><path d="m194.501 186.64c-9.652 0-9.668 15 0 15 9.652 0 9.668-15 0-15z"/><path d="m317.499 201.64c9.652 0 9.668-15 0-15-9.652 0-9.668 15 0 15z"/><path d="m222.757 280.215c-11.895 0-21.571 9.677-21.571 21.571 0 11.895 9.677 21.571 21.571 21.571 4.142 0 7.5-3.358 7.5-7.5s-3.358-7.5-7.5-7.5c-3.624 0-6.571-2.948-6.571-6.571s2.948-6.571 6.571-6.571 6.571 2.948 6.571 6.571c0 4.142 3.358 7.5 7.5 7.5s7.5-3.358 7.5-7.5c0-11.894-9.677-21.571-21.571-21.571z"/><path d="m310.814 301.786c0-11.894-9.677-21.571-21.571-21.571s-21.571 9.677-21.571 21.571c0 4.142 3.358 7.5 7.5 7.5s7.5-3.358 7.5-7.5c0-3.623 2.948-6.571 6.571-6.571s6.571 2.948 6.571 6.571c0 3.624-2.948 6.571-6.571 6.571-4.142 0-7.5 3.358-7.5 7.5s3.358 7.5 7.5 7.5c11.895 0 21.571-9.676 21.571-21.571z"/></g></g></svg>